<?xml version="1.0" encoding="UTF-8"?>
<svg version="1.1" xmlns="http://www.w3.org/2000/svg" width="512" height="512">
<path d="M0 0 C9.9 0 19.8 0 30 0 C30 10.23 30 20.46 30 31 C34.95 31.33 39.9 31.66 45 32 C48.5827881 32.49269653 52.08089429 33.01588536 55.625 33.6875 C56.55465576 33.86265137 57.48431152 34.03780273 58.44213867 34.21826172 C91.00726148 40.60638499 122.68173744 53.60334652 149 74 C149.8971875 74.68707031 150.794375 75.37414062 151.71875 76.08203125 C156.8834303 80.12291537 161.78154396 84.42074987 166.62109375 88.84375 C168.77510509 90.79615436 170.97027726 92.68277359 173.1875 94.5625 C177.19606972 98.06800221 180.57744058 101.93103274 184 106 C184.82371094 106.93585938 185.64742188 107.87171875 186.49609375 108.8359375 C217.38725543 144.11625089 240 193.44091478 240 241 C250.23 241 260.46 241 271 241 C271 250.9 271 260.8 271 271 C260.77 271 250.54 271 240 271 C239.67 275.95 239.34 280.9 239 286 C238.50730347 289.5827881 237.98411464 293.08089429 237.3125 296.625 C237.13734863 297.55465576 236.96219727 298.48431152 236.78173828 299.44213867 C228.75602926 340.35528151 210.00218837 377.93942819 181.46484375 408.34765625 C179.50451132 410.45711064 177.63945317 412.58945942 175.8125 414.8125 C172.56553483 418.6373149 168.8272147 421.77177277 165 425 C163.59427734 426.2375 163.59427734 426.2375 162.16015625 427.5 C126.87820376 458.38774061 77.55856008 481 30 481 C30 491.23 30 501.46 30 512 C20.1 512 10.2 512 0 512 C0 501.77 0 491.54 0 481 C-4.95 480.67 -9.9 480.34 -15 480 C-18.52150283 479.52911608 -21.95501785 479.02800761 -25.4375 478.375 C-26.35869629 478.20242676 -27.27989258 478.02985352 -28.22900391 477.85205078 C-69.23813884 469.78003887 -106.85941451 451.07727917 -137.34765625 422.46484375 C-139.45711064 420.50451132 -141.58945942 418.63945317 -143.8125 416.8125 C-147.6373149 413.56553483 -150.77177277 409.8272147 -154 406 C-155.2375 404.59427734 -155.2375 404.59427734 -156.5 403.16015625 C-187.38774061 367.87820376 -210 318.55856008 -210 271 C-220.23 271 -230.46 271 -241 271 C-241 261.1 -241 251.2 -241 241 C-230.77 241 -220.54 241 -210 241 C-209.67 236.05 -209.34 231.1 -209 226 C-208.50730808 222.41724539 -207.98376472 218.9191421 -207.3125 215.375 C-207.13879883 214.44896973 -206.96509766 213.52293945 -206.78613281 212.56884766 C-202.26502549 189.45008311 -194.05776386 167.75687568 -183 147 C-182.40960938 145.86691406 -181.81921875 144.73382813 -181.2109375 143.56640625 C-173.26322339 128.93923028 -163.06720339 115.64747057 -151.546875 103.6640625 C-149.51555274 101.5392745 -147.61090591 99.3961056 -145.75 97.125 C-142.52876888 93.31893441 -138.80337238 90.2081164 -135 87 C-134.06285156 86.175 -133.12570313 85.35 -132.16015625 84.5 C-96.87820376 53.61225939 -47.55856008 31 0 31 C0 20.77 0 10.54 0 0 Z M-121 117 C-121.89976563 117.83660156 -122.79953125 118.67320313 -123.7265625 119.53515625 C-155.31750988 149.71498062 -174.74350088 193.82542304 -179 237 C-179 238.32 -179 239.64 -179 241 C-169.43 241 -159.86 241 -150 241 C-150 250.9 -150 260.8 -150 271 C-159.57 271 -169.14 271 -179 271 C-175.03175474 318.25819356 -155.38054048 358.65983027 -123 393 C-122.27039063 393.78375 -121.54078125 394.5675 -120.7890625 395.375 C-110.73858501 405.83646356 -98.81056111 414.14737262 -86.64111328 421.94677734 C-85.24158412 422.84495777 -83.85211034 423.75877452 -82.46484375 424.67578125 C-58.08411603 440.1907898 -28.45267993 447.62894334 0 450 C0 440.43 0 430.86 0 421 C9.9 421 19.8 421 30 421 C30 430.57 30 440.14 30 450 C56.93172382 447.73855754 82.19997355 440.96184123 106 428 C106.90008789 427.51877686 106.90008789 427.51877686 107.81835938 427.02783203 C138.23536327 410.69983839 162.4217271 386.54583619 180.94677734 357.64111328 C181.84495777 356.24158412 182.75877452 354.85211034 183.67578125 353.46484375 C199.1907898 329.08411603 206.62894334 299.45267993 209 271 C199.43 271 189.86 271 180 271 C180 261.1 180 251.2 180 241 C189.57 241 199.14 241 209 241 C206.73855754 214.06827618 199.96184123 188.80002645 187 165 C186.51877686 164.09991211 186.51877686 164.09991211 186.02783203 163.18164062 C161.66352772 117.79399806 119.60872959 84.51605761 70.62792969 69.26123047 C57.61879722 65.37899454 43.63663639 62 30 62 C30 71.57 30 81.14 30 91 C20.1 91 10.2 91 0 91 C0 81.43 0 71.86 0 62 C-44.59451443 62 -89.70208018 86.79794572 -121 117 Z " fill="#F03800" transform="translate(241,0)"/>
<path d="M0 0 C4.19625909 1.63778045 6.98676785 4.73323182 10.078125 7.8828125 C10.64956238 8.45707977 11.22099976 9.03134705 11.80975342 9.62301636 C13.62792945 11.4523581 15.43901492 13.28854193 17.25 15.125 C18.48391329 16.36894774 19.71828322 17.6124427 20.953125 18.85546875 C23.97406743 21.89842367 26.98867092 24.94753254 30 28 C34.19625909 26.36221955 36.98676785 23.26676818 40.078125 20.1171875 C40.64956238 19.54292023 41.22099976 18.96865295 41.80975342 18.37698364 C43.62792945 16.5476419 45.43901492 14.71145807 47.25 12.875 C48.48391329 11.63105226 49.71828322 10.3875573 50.953125 9.14453125 C53.97406743 6.10157633 56.98867092 3.05246746 60 0 C63.56764285 1.51376081 65.83706287 3.60513129 68.546875 6.3515625 C69.39121094 7.20234375 70.23554688 8.053125 71.10546875 8.9296875 C71.97816406 9.81914063 72.85085938 10.70859375 73.75 11.625 C74.63816406 12.5221875 75.52632812 13.419375 76.44140625 14.34375 C78.63216969 16.55807004 80.81812763 18.77692435 83 21 C81.4152642 24.86328627 78.94043113 27.28876923 75.9921875 30.203125 C75.50670441 30.6857782 75.02122131 31.1684314 74.52102661 31.66571045 C72.97700134 33.19858562 71.42615176 34.72434004 69.875 36.25 C68.82375991 37.29120361 67.77297343 38.33286541 66.72265625 39.375 C64.15366996 41.92199464 61.57851839 44.46265177 59 47 C62.04265997 49.43349672 65.15164919 51.19203922 68.640625 52.91796875 C69.71054687 53.44970703 70.78046875 53.98144531 71.8828125 54.52929688 C72.99398437 55.07650391 74.10515625 55.62371094 75.25 56.1875 C76.93996094 57.02571289 76.93996094 57.02571289 78.6640625 57.88085938 C81.44093916 59.25753128 84.21961598 60.63042928 87 62 C92.47251259 57.45657009 97.46135599 52.60038267 102.41796875 47.50390625 C104.01698299 45.87766982 105.61661012 44.25203584 107.21679688 42.62695312 C109.71791137 40.08237105 112.21495108 37.53425996 114.7019043 34.97583008 C117.11681696 32.49465818 119.54705239 30.02941474 121.98046875 27.56640625 C123.09774605 26.40571373 123.09774605 26.40571373 124.2375946 25.22157288 C124.93544571 24.52011642 125.63329681 23.81865997 126.35229492 23.09594727 C126.96183517 22.47228775 127.57137543 21.84862823 128.1993866 21.20606995 C130 20 130 20 131.97584534 20.07565308 C134.52810525 21.24116362 136.05812893 22.69830551 138.03417969 24.69360352 C138.81468689 25.47433731 139.59519409 26.25507111 140.39935303 27.0594635 C141.23178528 27.90737961 142.06421753 28.75529572 142.921875 29.62890625 C143.78186096 30.49313705 144.64184692 31.35736786 145.52789307 32.24778748 C148.27570575 35.01240612 151.01291036 37.78726862 153.75 40.5625 C155.60998825 42.43753251 157.47065707 44.31189018 159.33203125 46.18554688 C163.89594973 50.78256017 168.45119938 55.38802955 173 60 C169.81597912 63.76672156 166.63838094 67.49002591 163.1328125 70.96484375 C162.47539062 71.61904297 161.81796875 72.27324219 161.140625 72.94726562 C160.47546875 73.60404297 159.8103125 74.26082031 159.125 74.9375 C158.43664062 75.62134766 157.74828125 76.30519531 157.0390625 77.00976562 C155.36166489 78.67551464 153.68196209 80.3388622 152 82 C148.84795019 80.60652624 146.73828227 78.97514921 144.328125 76.5234375 C143.66425781 75.853125 143.00039063 75.1828125 142.31640625 74.4921875 C141.29353516 73.44417969 141.29353516 73.44417969 140.25 72.375 C139.20392578 71.31539062 139.20392578 71.31539062 138.13671875 70.234375 C136.41987512 68.49401297 134.70788168 66.74915019 133 65 C123.0865574 69.55478597 111.78451325 78.94025419 107 89 C103.52355545 101.12053358 105.39457328 114.80497605 106 127 C124.81 127 143.62 127 163 127 C163 145.81 163 164.62 163 184 C153.1 184 143.2 184 133 184 C133 175.09 133 166.18 133 157 C124.09 157 115.18 157 106 157 C103.3755977 169.56487584 101.48635461 182.93470725 107 195 C114.99188511 206.94072792 126.20652619 216.6143689 136.77587891 226.21533203 C137.30796085 226.69872417 137.8400428 227.18211632 138.38824844 227.68015671 C140.94022738 229.98847612 143.51025599 232.26838157 146.12609863 234.50415039 C147.04370972 235.30344971 147.9613208 236.10274902 148.90673828 236.92626953 C149.72312775 237.61995636 150.53951721 238.31364319 151.38064575 239.02835083 C153 241 153 241 152.98667908 243.00247192 C151.75653992 245.49288401 150.28248616 247.07715197 148.30639648 249.03417969 C147.52566269 249.81468689 146.74492889 250.59519409 145.9405365 251.39935303 C145.09262039 252.23178528 144.24470428 253.06421753 143.37109375 253.921875 C142.50686295 254.78186096 141.64263214 255.64184692 140.75221252 256.52789307 C137.98759388 259.27570575 135.21273138 262.01291036 132.4375 264.75 C130.56246749 266.60998825 128.68810982 268.47065707 126.81445312 270.33203125 C122.21743983 274.89594973 117.61197045 279.45119938 113 284 C109.23327844 280.81597912 105.50997409 277.63838094 102.03515625 274.1328125 C101.05385742 273.14667969 101.05385742 273.14667969 100.05273438 272.140625 C99.39595703 271.47546875 98.73917969 270.8103125 98.0625 270.125 C97.37865234 269.43664062 96.69480469 268.74828125 95.99023438 268.0390625 C94.32448536 266.36166489 92.6611378 264.68196209 91 263 C92.39347376 259.84795019 94.02485079 257.73828227 96.4765625 255.328125 C97.146875 254.66425781 97.8171875 254.00039063 98.5078125 253.31640625 C99.55582031 252.29353516 99.55582031 252.29353516 100.625 251.25 C101.33140625 250.55261719 102.0378125 249.85523438 102.765625 249.13671875 C104.50598703 247.41987512 106.25084981 245.70788168 108 244 C106.6415798 240.95667235 105.11536976 238.87690849 102.7421875 236.546875 C102.11699219 235.928125 101.49179687 235.309375 100.84765625 234.671875 C100.19667969 234.03765625 99.54570312 233.4034375 98.875 232.75 C98.21628906 232.1003125 97.55757812 231.450625 96.87890625 230.78125 C95.25703357 229.18288273 93.6306719 227.58938103 92 226 C88.02473776 227.6006756 85.35979696 230.37143556 82.40527344 233.36767578 C81.85848938 233.91416779 81.31170532 234.46065979 80.74835205 235.02371216 C78.94724351 236.82621093 77.15331753 238.63568396 75.359375 240.4453125 C74.10999505 241.69842367 72.86017199 242.95109319 71.60992432 244.20333862 C68.32413128 247.49675955 65.0443893 250.79614291 61.76586914 254.09680176 C58.41785747 257.46528994 55.06416093 260.8281076 51.7109375 264.19140625 C45.13504704 270.78873176 38.56553484 277.39236983 32 284 C28.02473776 282.3993244 25.35979696 279.62856444 22.40527344 276.63232422 C21.85848938 276.08583221 21.31170532 275.53934021 20.74835205 274.97628784 C18.94724351 273.17378907 17.15331753 271.36431604 15.359375 269.5546875 C14.10999505 268.30157633 12.86017199 267.04890681 11.60992432 265.79666138 C8.32413128 262.50324045 5.0443893 259.20385709 1.76586914 255.90319824 C-1.58214253 252.53471006 -4.93583907 249.1718924 -8.2890625 245.80859375 C-14.86495296 239.21126824 -21.43446516 232.60763017 -28 226 C-31.01409306 227.44304314 -33.10472016 228.86591868 -35.453125 231.2578125 C-36.071875 231.88300781 -36.690625 232.50820313 -37.328125 233.15234375 C-37.96234375 233.80332031 -38.5965625 234.45429688 -39.25 235.125 C-39.8996875 235.78371094 -40.549375 236.44242188 -41.21875 237.12109375 C-42.81711727 238.74296643 -44.41061897 240.3693281 -46 242 C-44.60652624 245.15204981 -42.97514921 247.26171773 -40.5234375 249.671875 C-39.853125 250.33574219 -39.1828125 250.99960937 -38.4921875 251.68359375 C-37.79351562 252.36550781 -37.09484375 253.04742187 -36.375 253.75 C-35.66859375 254.44738281 -34.9621875 255.14476562 -34.234375 255.86328125 C-32.49401297 257.58012488 -30.74915019 259.29211832 -29 261 C-30.51376081 264.56764285 -32.60513129 266.83706287 -35.3515625 269.546875 C-36.20234375 270.39121094 -37.053125 271.23554688 -37.9296875 272.10546875 C-38.81914062 272.97816406 -39.70859375 273.85085938 -40.625 274.75 C-41.5221875 275.63816406 -42.419375 276.52632813 -43.34375 277.44140625 C-45.55807004 279.63216969 -47.77692435 281.81812763 -50 284 C-57.77138368 277.48366179 -64.91433078 270.38067238 -72.109375 263.24072266 C-73.71216065 261.65463269 -75.32031053 260.07394636 -76.93359375 258.49853516 C-79.26990809 256.21665277 -81.58964674 253.91905723 -83.90625 251.6171875 C-84.6331604 250.91294647 -85.3600708 250.20870544 -86.10900879 249.48312378 C-87.09628967 248.49156784 -87.09628967 248.49156784 -88.10351562 247.47998047 C-88.68862915 246.9029538 -89.27374268 246.32592712 -89.87658691 245.73141479 C-91 244 -91 244 -90.9453125 242.03137207 C-89.68432211 239.32164312 -88.0477731 237.95539421 -85.77148438 236.01806641 C-84.87404007 235.23878281 -83.97659576 234.45949921 -83.05195618 233.65660095 C-81.58764412 232.39185692 -81.58764412 232.39185692 -80.09375 231.1015625 C-54.18689907 210.00855897 -54.18689907 210.00855897 -41.56240845 180.87713623 C-41.30852729 172.74783328 -42.38954036 164.95077924 -44 157 C-52.91 157 -61.82 157 -71 157 C-71 165.91 -71 174.82 -71 184 C-80.9 184 -90.8 184 -101 184 C-101 165.19 -101 146.38 -101 127 C-82.19 127 -63.38 127 -44 127 C-41.30125104 102.68175655 -41.30125104 102.68175655 -50.41015625 81.1328125 C-55.98482067 75.0891097 -62.37493142 69.84660113 -69 65 C-72.15204981 66.39347376 -74.26171773 68.02485079 -76.671875 70.4765625 C-77.33574219 71.146875 -77.99960938 71.8171875 -78.68359375 72.5078125 C-79.36550781 73.20648438 -80.04742187 73.90515625 -80.75 74.625 C-81.44738281 75.33140625 -82.14476562 76.0378125 -82.86328125 76.765625 C-84.58012488 78.50598703 -86.29211832 80.25084981 -88 82 C-91.56764285 80.48623919 -93.83706287 78.39486871 -96.546875 75.6484375 C-97.39121094 74.79765625 -98.23554687 73.946875 -99.10546875 73.0703125 C-99.97816406 72.18085938 -100.85085937 71.29140625 -101.75 70.375 C-103.08224609 69.02921875 -103.08224609 69.02921875 -104.44140625 67.65625 C-106.63216969 65.44192996 -108.81812763 63.22307565 -111 61 C-104.48366179 53.22861632 -97.38067238 46.08566922 -90.24072266 38.890625 C-88.65463269 37.28783935 -87.07394636 35.67968947 -85.49853516 34.06640625 C-83.21665277 31.73009191 -80.91905723 29.41035326 -78.6171875 27.09375 C-77.91294647 26.3668396 -77.20870544 25.6399292 -76.48312378 24.89099121 C-75.82208649 24.23280396 -75.16104919 23.5746167 -74.47998047 22.89648438 C-73.9029538 22.31137085 -73.32592712 21.72625732 -72.73141479 21.12341309 C-71 20 -71 20 -69.04611206 20.0766449 C-66.40273828 21.26952808 -64.82493524 22.81557462 -62.78222656 24.87719727 C-61.96167786 25.69797256 -61.14112915 26.51874786 -60.29571533 27.36439514 C-59.41953552 28.25605881 -58.54335571 29.14772247 -57.640625 30.06640625 C-56.73624695 30.97502914 -55.8318689 31.88365204 -54.90008545 32.81980896 C-52.49979247 35.23153764 -50.10864631 37.65214002 -47.71929932 40.07470703 C-45.27796639 42.54676832 -42.82808261 45.01032305 -40.37890625 47.47460938 C-35.57753826 52.30811895 -30.78578051 57.15105773 -26 62 C-22.96180922 60.56471124 -19.92421384 59.12816664 -16.88671875 57.69140625 C-16.03235229 57.28780884 -15.17798584 56.88421143 -14.29772949 56.46838379 C-8.49276442 53.72160335 -2.71771459 50.92500052 3 48 C-1.81867247 42.19108254 -7.01256408 36.86934448 -12.375 31.5625 C-13.20644531 30.73556641 -14.03789062 29.90863281 -14.89453125 29.05664062 C-16.9274104 27.03544469 -18.96259963 25.01663665 -21 23 C-19.48623919 19.43235715 -17.39486871 17.16293713 -14.6484375 14.453125 C-13.79765625 13.60878906 -12.946875 12.76445313 -12.0703125 11.89453125 C-11.18085938 11.02183594 -10.29140625 10.14914063 -9.375 9.25 C-8.4778125 8.36183594 -7.580625 7.47367187 -6.65625 6.55859375 C-4.44192996 4.36783031 -2.22307565 2.18187237 0 0 Z " fill="#FE641A" transform="translate(225,114)"/>
<path d="M0 0 C4.95 0 9.9 0 15 0 C15 30.03 15 60.06 15 91 C10.05 91 5.1 91 0 91 C0 81.43 0 71.86 0 62 C-46.45543619 69.25027039 -86.74567799 84.97431221 -121 118 C-121.82628906 118.763125 -122.65257813 119.52625 -123.50390625 120.3125 C-157.14263142 152.27738812 -172.04079333 196.40952766 -179 241 C-169.43 241 -159.86 241 -150 241 C-150 250.9 -150 260.8 -150 271 C-159.57 271 -169.14 271 -179 271 C-171.57888556 318.55010363 -155.30883893 357.62473384 -122 393 C-121.01580078 394.06541016 -121.01580078 394.06541016 -120.01171875 395.15234375 C-110.28457315 405.33772747 -98.44795656 413.37976604 -86.64111328 420.94677734 C-85.24158412 421.84495777 -83.85211034 422.75877452 -82.46484375 423.67578125 C-61.48454416 437.02688099 -36.31598023 444.1017238 -12 448 C-8.04 448.66 -4.08 449.32 0 450 C0 440.43 0 430.86 0 421 C4.95 421 9.9 421 15 421 C15 451.03 15 481.06 15 512 C10.05 512 5.1 512 0 512 C0 501.77 0 491.54 0 481 C-4.95 480.67 -9.9 480.34 -15 480 C-18.52150283 479.52911608 -21.95501785 479.02800761 -25.4375 478.375 C-26.35869629 478.20242676 -27.27989258 478.02985352 -28.22900391 477.85205078 C-69.23813884 469.78003887 -106.85941451 451.07727917 -137.34765625 422.46484375 C-139.45711064 420.50451132 -141.58945942 418.63945317 -143.8125 416.8125 C-147.6373149 413.56553483 -150.77177277 409.8272147 -154 406 C-155.2375 404.59427734 -155.2375 404.59427734 -156.5 403.16015625 C-187.38774061 367.87820376 -210 318.55856008 -210 271 C-220.23 271 -230.46 271 -241 271 C-241 261.1 -241 251.2 -241 241 C-230.77 241 -220.54 241 -210 241 C-209.67 236.05 -209.34 231.1 -209 226 C-208.50730808 222.41724539 -207.98376472 218.9191421 -207.3125 215.375 C-207.13879883 214.44896973 -206.96509766 213.52293945 -206.78613281 212.56884766 C-202.26502549 189.45008311 -194.05776386 167.75687568 -183 147 C-182.40960938 145.86691406 -181.81921875 144.73382813 -181.2109375 143.56640625 C-173.26322339 128.93923028 -163.06720339 115.64747057 -151.546875 103.6640625 C-149.51555274 101.5392745 -147.61090591 99.3961056 -145.75 97.125 C-142.52876888 93.31893441 -138.80337238 90.2081164 -135 87 C-134.06285156 86.175 -133.12570313 85.35 -132.16015625 84.5 C-96.87820376 53.61225939 -47.55856008 31 0 31 C0 20.77 0 10.54 0 0 Z " fill="#FF6319" transform="translate(241,0)"/>
<path d="M0 0 C4.19625909 1.63778045 6.98676785 4.73323182 10.078125 7.8828125 C10.64956238 8.45707977 11.22099976 9.03134705 11.80975342 9.62301636 C13.62792945 11.4523581 15.43901492 13.28854193 17.25 15.125 C18.48391329 16.36894774 19.71828322 17.6124427 20.953125 18.85546875 C23.97406743 21.89842367 26.98867092 24.94753254 30 28 C34.19625909 26.36221955 36.98676785 23.26676818 40.078125 20.1171875 C40.64956238 19.54292023 41.22099976 18.96865295 41.80975342 18.37698364 C43.62792945 16.5476419 45.43901492 14.71145807 47.25 12.875 C48.48391329 11.63105226 49.71828322 10.3875573 50.953125 9.14453125 C53.97406743 6.10157633 56.98867092 3.05246746 60 0 C63.56764285 1.51376081 65.83706287 3.60513129 68.546875 6.3515625 C69.39121094 7.20234375 70.23554688 8.053125 71.10546875 8.9296875 C71.97816406 9.81914063 72.85085938 10.70859375 73.75 11.625 C74.63816406 12.5221875 75.52632812 13.419375 76.44140625 14.34375 C78.63216969 16.55807004 80.81812763 18.77692435 83 21 C81.4152642 24.86328627 78.94043113 27.28876923 75.9921875 30.203125 C75.50670441 30.6857782 75.02122131 31.1684314 74.52102661 31.66571045 C72.97700134 33.19858562 71.42615176 34.72434004 69.875 36.25 C68.82375991 37.29120361 67.77297343 38.33286541 66.72265625 39.375 C64.15366996 41.92199464 61.57851839 44.46265177 59 47 C62.04265997 49.43349672 65.15164919 51.19203922 68.640625 52.91796875 C69.71054687 53.44970703 70.78046875 53.98144531 71.8828125 54.52929688 C72.99398437 55.07650391 74.10515625 55.62371094 75.25 56.1875 C76.93996094 57.02571289 76.93996094 57.02571289 78.6640625 57.88085938 C81.44093916 59.25753128 84.21961598 60.63042928 87 62 C92.47251259 57.45657009 97.46135599 52.60038267 102.41796875 47.50390625 C104.01698299 45.87766982 105.61661012 44.25203584 107.21679688 42.62695312 C109.71791137 40.08237105 112.21495108 37.53425996 114.7019043 34.97583008 C117.11681696 32.49465818 119.54705239 30.02941474 121.98046875 27.56640625 C123.09774605 26.40571373 123.09774605 26.40571373 124.2375946 25.22157288 C124.93544571 24.52011642 125.63329681 23.81865997 126.35229492 23.09594727 C126.96183517 22.47228775 127.57137543 21.84862823 128.1993866 21.20606995 C130 20 130 20 131.97584534 20.07565308 C134.52810525 21.24116362 136.05812893 22.69830551 138.03417969 24.69360352 C138.81468689 25.47433731 139.59519409 26.25507111 140.39935303 27.0594635 C141.23178528 27.90737961 142.06421753 28.75529572 142.921875 29.62890625 C143.78186096 30.49313705 144.64184692 31.35736786 145.52789307 32.24778748 C148.27570575 35.01240612 151.01291036 37.78726862 153.75 40.5625 C155.60998825 42.43753251 157.47065707 44.31189018 159.33203125 46.18554688 C163.89594973 50.78256017 168.45119938 55.38802955 173 60 C169.81597912 63.76672156 166.63838094 67.49002591 163.1328125 70.96484375 C162.47539062 71.61904297 161.81796875 72.27324219 161.140625 72.94726562 C160.47546875 73.60404297 159.8103125 74.26082031 159.125 74.9375 C158.43664062 75.62134766 157.74828125 76.30519531 157.0390625 77.00976562 C155.36166489 78.67551464 153.68196209 80.3388622 152 82 C148.84795019 80.60652624 146.73828227 78.97514921 144.328125 76.5234375 C143.66425781 75.853125 143.00039063 75.1828125 142.31640625 74.4921875 C141.29353516 73.44417969 141.29353516 73.44417969 140.25 72.375 C139.20392578 71.31539062 139.20392578 71.31539062 138.13671875 70.234375 C136.41987512 68.49401297 134.70788168 66.74915019 133 65 C129.13847964 66.58193599 126.73375139 69.05146129 123.83203125 72.0078125 C123.11160896 72.73603714 123.11160896 72.73603714 122.37663269 73.47897339 C120.85040284 75.02295281 119.331063 76.57348228 117.8125 78.125 C116.28234322 79.6827423 114.75075731 81.23901031 113.2162323 82.79244995 C111.83074211 84.19581206 110.45004713 85.60390345 109.06958008 87.01220703 C107 89 107 89 106 89 C105.67 84.05 105.34 79.1 105 74 C101.73716444 77.30178596 101.73716444 77.30178596 98.48046875 80.60961914 C95.13854272 83.97110705 91.63520364 87.09663447 88.05273438 90.19897461 C84.70781667 93.13373411 81.48316937 96.1933093 78.25 99.25 C72.51185663 104.65236904 66.74064591 110.01259914 60.921875 115.328125 C57.79356016 118.18877654 54.67632077 121.06109529 51.5625 123.9375 C51.03156738 124.42790771 50.50063477 124.91831543 49.95361328 125.42358398 C48.86843889 126.4260519 47.78331582 127.42857537 46.69824219 128.43115234 C43.69554787 131.20506173 40.69142932 133.97742819 37.6875 136.75 C36.58723362 137.76561854 35.48697263 138.78124291 34.38671875 139.796875 C33.59910156 140.52390625 32.81148437 141.2509375 32 142 C28.51345524 140.5158627 26.35808928 138.53785948 23.75 135.8125 C20.36644155 132.28693088 16.81666377 129.06824089 13.12792969 125.87182617 C9.58402756 122.75444462 6.1729647 119.49888882 2.75 116.25 C-3.15979795 110.66409702 -9.10259389 105.12222306 -15.109375 99.640625 C-18.25002731 96.77159668 -21.37634385 93.88749869 -24.5 91 C-30.65100516 85.31614804 -36.82322622 79.65584105 -43 74 C-43.33 78.95 -43.66 83.9 -44 89 C-49.80891746 84.18132753 -55.13065552 78.98743592 -60.4375 73.625 C-61.26443359 72.79355469 -62.09136719 71.96210938 -62.94335938 71.10546875 C-64.96455531 69.0725896 -66.98336335 67.03740037 -69 65 C-72.15204981 66.39347376 -74.26171773 68.02485079 -76.671875 70.4765625 C-77.33574219 71.146875 -77.99960938 71.8171875 -78.68359375 72.5078125 C-79.36550781 73.20648438 -80.04742187 73.90515625 -80.75 74.625 C-81.44738281 75.33140625 -82.14476562 76.0378125 -82.86328125 76.765625 C-84.58012488 78.50598703 -86.29211832 80.25084981 -88 82 C-91.56764285 80.48623919 -93.83706287 78.39486871 -96.546875 75.6484375 C-97.39121094 74.79765625 -98.23554687 73.946875 -99.10546875 73.0703125 C-99.97816406 72.18085938 -100.85085937 71.29140625 -101.75 70.375 C-103.08224609 69.02921875 -103.08224609 69.02921875 -104.44140625 67.65625 C-106.63216969 65.44192996 -108.81812763 63.22307565 -111 61 C-104.48366179 53.22861632 -97.38067238 46.08566922 -90.24072266 38.890625 C-88.65463269 37.28783935 -87.07394636 35.67968947 -85.49853516 34.06640625 C-83.21665277 31.73009191 -80.91905723 29.41035326 -78.6171875 27.09375 C-77.91294647 26.3668396 -77.20870544 25.6399292 -76.48312378 24.89099121 C-75.82208649 24.23280396 -75.16104919 23.5746167 -74.47998047 22.89648438 C-73.9029538 22.31137085 -73.32592712 21.72625732 -72.73141479 21.12341309 C-71 20 -71 20 -69.04611206 20.0766449 C-66.40273828 21.26952808 -64.82493524 22.81557462 -62.78222656 24.87719727 C-61.96167786 25.69797256 -61.14112915 26.51874786 -60.29571533 27.36439514 C-59.41953552 28.25605881 -58.54335571 29.14772247 -57.640625 30.06640625 C-56.73624695 30.97502914 -55.8318689 31.88365204 -54.90008545 32.81980896 C-52.49979247 35.23153764 -50.10864631 37.65214002 -47.71929932 40.07470703 C-45.27796639 42.54676832 -42.82808261 45.01032305 -40.37890625 47.47460938 C-35.57753826 52.30811895 -30.78578051 57.15105773 -26 62 C-22.96180922 60.56471124 -19.92421384 59.12816664 -16.88671875 57.69140625 C-16.03235229 57.28780884 -15.17798584 56.88421143 -14.29772949 56.46838379 C-8.49276442 53.72160335 -2.71771459 50.92500052 3 48 C-1.81867247 42.19108254 -7.01256408 36.86934448 -12.375 31.5625 C-13.20644531 30.73556641 -14.03789062 29.90863281 -14.89453125 29.05664062 C-16.9274104 27.03544469 -18.96259963 25.01663665 -21 23 C-19.48623919 19.43235715 -17.39486871 17.16293713 -14.6484375 14.453125 C-13.79765625 13.60878906 -12.946875 12.76445313 -12.0703125 11.89453125 C-11.18085938 11.02183594 -10.29140625 10.14914063 -9.375 9.25 C-8.4778125 8.36183594 -7.580625 7.47367187 -6.65625 6.55859375 C-4.44192996 4.36783031 -2.22307565 2.18187237 0 0 Z " fill="#384949" transform="translate(225,114)"/>
<path d="M0 0 C0 17.82 0 35.64 0 54 C18.81 54 37.62 54 57 54 C57 72.81 57 91.62 57 111 C47.1 111 37.2 111 27 111 C27 102.09 27 93.18 27 84 C18.09 84 9.18 84 0 84 C-2.6244023 96.56487584 -4.51364539 109.93470725 1 122 C8.99188511 133.94072792 20.20652619 143.6143689 30.77587891 153.21533203 C31.57400183 153.94042025 31.57400183 153.94042025 32.38824844 154.68015671 C34.94022738 156.98847612 37.51025599 159.26838157 40.12609863 161.50415039 C41.04370972 162.30344971 41.9613208 163.10274902 42.90673828 163.92626953 C43.72312775 164.61995636 44.53951721 165.31364319 45.38064575 166.02835083 C47 168 47 168 46.98667908 170.00247192 C45.75653992 172.49288401 44.28248616 174.07715197 42.30639648 176.03417969 C41.52566269 176.81468689 40.74492889 177.59519409 39.9405365 178.39935303 C39.09262039 179.23178528 38.24470428 180.06421753 37.37109375 180.921875 C36.50686295 181.78186096 35.64263214 182.64184692 34.75221252 183.52789307 C31.98759388 186.27570575 29.21273138 189.01291036 26.4375 191.75 C24.56246749 193.60998825 22.68810982 195.47065707 20.81445312 197.33203125 C16.21743983 201.89594973 11.61197045 206.45119938 7 211 C3.23327844 207.81597912 -0.49002591 204.63838094 -3.96484375 201.1328125 C-4.61904297 200.47539062 -5.27324219 199.81796875 -5.94726562 199.140625 C-6.60404297 198.47546875 -7.26082031 197.8103125 -7.9375 197.125 C-8.62134766 196.43664062 -9.30519531 195.74828125 -10.00976562 195.0390625 C-11.67551464 193.36166489 -13.3388622 191.68196209 -15 190 C-13.60652624 186.84795019 -11.97514921 184.73828227 -9.5234375 182.328125 C-8.853125 181.66425781 -8.1828125 181.00039063 -7.4921875 180.31640625 C-6.44417969 179.29353516 -6.44417969 179.29353516 -5.375 178.25 C-4.31539062 177.20392578 -4.31539062 177.20392578 -3.234375 176.13671875 C-1.49401297 174.41987512 0.25084981 172.70788168 2 171 C0.6415798 167.95667235 -0.88463024 165.87690849 -3.2578125 163.546875 C-4.19560547 162.61875 -4.19560547 162.61875 -5.15234375 161.671875 C-5.80332031 161.03765625 -6.45429688 160.4034375 -7.125 159.75 C-7.78371094 159.1003125 -8.44242187 158.450625 -9.12109375 157.78125 C-10.74296643 156.18288273 -12.3693281 154.58938103 -14 153 C-17.97394507 154.59918415 -20.6305907 157.36852847 -23.57885742 160.36767578 C-24.12403519 160.91416779 -24.66921295 161.46065979 -25.23091125 162.02371216 C-27.02707654 163.82635518 -28.81616291 165.63586289 -30.60546875 167.4453125 C-31.85238055 168.69849499 -33.09980909 169.95116353 -34.34773254 171.20333862 C-37.62803798 174.4969373 -40.90272547 177.79606075 -44.17584229 181.09680176 C-49.42453701 186.38865302 -54.68001889 191.67374355 -59.93868446 196.95568466 C-61.77858042 198.80584391 -63.61505002 200.65935561 -65.45121765 202.51321411 C-66.5704735 203.63929348 -67.68983703 204.76526584 -68.80932617 205.89111328 C-69.32308807 206.41161255 -69.83684998 206.93211182 -70.36618042 207.46838379 C-71.55860373 208.66467889 -72.77656541 209.83543866 -74 211 C-74.33 211 -74.66 211 -75 211 C-75.21050509 192.6411465 -75.36907699 174.28260739 -75.46630955 155.92280674 C-75.51266232 147.39742688 -75.57582372 138.87279807 -75.67895508 130.34790039 C-75.76883169 122.91508705 -75.82676386 115.48281774 -75.84679645 108.04947609 C-75.85850217 104.1154292 -75.88588744 100.18293824 -75.95157051 96.24939156 C-76.01298244 92.54134393 -76.03144288 88.83548201 -76.01796913 85.12697411 C-76.02159914 83.12812678 -76.06987008 81.129514 -76.11978149 79.13128662 C-76.05137127 72.45623601 -75.47731344 68.69831159 -70.69102478 63.84703064 C-69.15471463 62.5320267 -67.59163013 61.24747657 -66 60 C-64.63576204 58.80239199 -63.2755199 57.60019337 -61.921875 56.390625 C-61.27025391 55.83052734 -60.61863281 55.27042969 -59.94726562 54.69335938 C-56.62728553 51.80627538 -53.44662967 48.77214548 -50.25 45.75 C-44.51185663 40.34763096 -38.74064591 34.98740086 -32.921875 29.671875 C-28.15999922 25.31743244 -23.42419847 20.93481566 -18.68505859 16.55566406 C-16.92292333 14.928842 -15.1589298 13.30405442 -13.39453125 11.6796875 C-12.80534912 11.13691162 -12.21616699 10.59413574 -11.60913086 10.03491211 C-10.4814893 8.99617372 -9.35341995 7.95789947 -8.22485352 6.92016602 C-6.1776914 5.03343878 -4.14513043 3.14795765 -2.1953125 1.16015625 C-1 0 -1 0 0 0 Z " fill="#EF3800" transform="translate(331,187)"/>
<path d="M0 0 C12.46059382 5.76852884 25.21399103 16.40262208 31 29 C35.90412453 45.97858954 33.67412113 65.35593634 32.85394287 82.77288818 C32.57437316 89.3481587 32.45373307 95.92632075 32.31835938 102.50585938 C32.03143343 115.34450837 31.57807044 128.17132136 31 141 C27.78369859 139.47396585 25.71230701 137.90199229 23.25 135.3125 C20.69340456 132.63237159 18.04603417 130.13994744 15.25 127.71484375 C10.97348116 124.00538536 6.8555375 120.14674918 2.75 116.25 C-3.15979795 110.66409702 -9.10259389 105.12222306 -15.109375 99.640625 C-18.25002731 96.77159668 -21.37634385 93.88749869 -24.5 91 C-30.65100516 85.31614804 -36.82322622 79.65584105 -43 74 C-43.33 78.95 -43.66 83.9 -44 89 C-49.80891746 84.18132753 -55.13065552 78.98743592 -60.4375 73.625 C-61.26443359 72.79355469 -62.09136719 71.96210938 -62.94335938 71.10546875 C-64.96455531 69.0725896 -66.98336335 67.03740037 -69 65 C-72.15204981 66.39347376 -74.26171773 68.02485079 -76.671875 70.4765625 C-77.33574219 71.146875 -77.99960938 71.8171875 -78.68359375 72.5078125 C-79.36550781 73.20648438 -80.04742187 73.90515625 -80.75 74.625 C-81.44738281 75.33140625 -82.14476562 76.0378125 -82.86328125 76.765625 C-84.58012488 78.50598703 -86.29211832 80.25084981 -88 82 C-91.56764285 80.48623919 -93.83706287 78.39486871 -96.546875 75.6484375 C-97.39121094 74.79765625 -98.23554687 73.946875 -99.10546875 73.0703125 C-99.97816406 72.18085938 -100.85085937 71.29140625 -101.75 70.375 C-103.08224609 69.02921875 -103.08224609 69.02921875 -104.44140625 67.65625 C-106.63216969 65.44192996 -108.81812763 63.22307565 -111 61 C-104.48366179 53.22861632 -97.38067238 46.08566922 -90.24072266 38.890625 C-88.65463269 37.28783935 -87.07394636 35.67968947 -85.49853516 34.06640625 C-83.21665277 31.73009191 -80.91905723 29.41035326 -78.6171875 27.09375 C-77.91294647 26.3668396 -77.20870544 25.6399292 -76.48312378 24.89099121 C-75.82208649 24.23280396 -75.16104919 23.5746167 -74.47998047 22.89648438 C-73.9029538 22.31137085 -73.32592712 21.72625732 -72.73141479 21.12341309 C-71 20 -71 20 -69.04611206 20.0766449 C-66.40273828 21.26952808 -64.82493524 22.81557462 -62.78222656 24.87719727 C-61.96167786 25.69797256 -61.14112915 26.51874786 -60.29571533 27.36439514 C-59.41953552 28.25605881 -58.54335571 29.14772247 -57.640625 30.06640625 C-56.73624695 30.97502914 -55.8318689 31.88365204 -54.90008545 32.81980896 C-52.49979247 35.23153764 -50.10864631 37.65214002 -47.71929932 40.07470703 C-45.27796639 42.54676832 -42.82808261 45.01032305 -40.37890625 47.47460938 C-35.57753826 52.30811895 -30.78578051 57.15105773 -26 62 C-22.96180922 60.56471124 -19.92421384 59.12816664 -16.88671875 57.69140625 C-16.03235229 57.28780884 -15.17798584 56.88421143 -14.29772949 56.46838379 C-8.49276442 53.72160335 -2.71771459 50.92500052 3 48 C-1.81867247 42.19108254 -7.01256408 36.86934448 -12.375 31.5625 C-13.20644531 30.73556641 -14.03789062 29.90863281 -14.89453125 29.05664062 C-16.9274104 27.03544469 -18.96259963 25.01663665 -21 23 C-19.48623919 19.43235715 -17.39486871 17.16293713 -14.6484375 14.453125 C-13.79765625 13.60878906 -12.946875 12.76445313 -12.0703125 11.89453125 C-11.18085938 11.02183594 -10.29140625 10.14914063 -9.375 9.25 C-8.4778125 8.36183594 -7.580625 7.47367187 -6.65625 6.55859375 C-4.44192996 4.36783031 -2.22307565 2.18187237 0 0 Z " fill="#4A686E" transform="translate(225,114)"/>
<path d="M0 0 C8.71039441 7.26402435 16.63253055 15.33449658 24.67285156 23.32275391 C26.56687798 25.20009719 28.4643347 27.07270955 30.37011719 28.93798828 C33.12340394 31.6368529 35.86019127 34.35148594 38.59375 37.0703125 C39.45190308 37.9057962 40.31005615 38.74127991 41.19421387 39.6020813 C41.97252563 40.3832431 42.7508374 41.16440491 43.55273438 41.96923828 C44.5902887 42.99466232 44.5902887 42.99466232 45.64880371 44.040802 C47 46 47 46 46.94630432 47.99978638 C45.7546612 50.51857527 44.28828601 52.07140806 42.30639648 54.03417969 C41.52566269 54.81468689 40.74492889 55.59519409 39.9405365 56.39935303 C39.09262039 57.23178528 38.24470428 58.06421753 37.37109375 58.921875 C36.50686295 59.78186096 35.64263214 60.64184692 34.75221252 61.52789307 C31.98759388 64.27570575 29.21273138 67.01291036 26.4375 69.75 C24.56246749 71.60998825 22.68810982 73.47065707 20.81445312 75.33203125 C16.21743983 79.89594973 11.61197045 84.45119938 7 89 C3.23327844 85.81597912 -0.49002591 82.63838094 -3.96484375 79.1328125 C-4.61904297 78.47539062 -5.27324219 77.81796875 -5.94726562 77.140625 C-6.60404297 76.47546875 -7.26082031 75.8103125 -7.9375 75.125 C-8.62134766 74.43664062 -9.30519531 73.74828125 -10.00976562 73.0390625 C-11.67551464 71.36166489 -13.3388622 69.68196209 -15 68 C-13.60652624 64.84795019 -11.97514921 62.73828227 -9.5234375 60.328125 C-8.853125 59.66425781 -8.1828125 59.00039063 -7.4921875 58.31640625 C-6.44417969 57.29353516 -6.44417969 57.29353516 -5.375 56.25 C-4.66859375 55.55261719 -3.9621875 54.85523438 -3.234375 54.13671875 C-1.49401297 52.41987512 0.25084981 50.70788168 2 49 C0.60652624 45.84795019 -1.02485079 43.73828227 -3.4765625 41.328125 C-4.146875 40.66425781 -4.8171875 40.00039063 -5.5078125 39.31640625 C-6.20648438 38.63449219 -6.90515625 37.95257813 -7.625 37.25 C-8.33140625 36.55261719 -9.0378125 35.85523438 -9.765625 35.13671875 C-11.50598703 33.41987512 -13.25084981 31.70788168 -15 30 C-13.43722266 26.5141242 -11.50447713 24.5876674 -8.60644531 22.09082031 C-2.79128615 17.05232702 -2.79128615 17.05232702 0.01171875 10.1015625 C0.22315916 6.68385353 0.2624822 3.41226859 0 0 Z " fill="#384848" transform="translate(331,309)"/>
<path d="M0 0 C-0.13535156 1.27230469 -0.13535156 1.27230469 -0.2734375 2.5703125 C-0.45943433 9.08020163 -0.13736405 13.11889986 4.18359375 18.046875 C7.61365847 21.5689033 11.25364931 24.81922742 15 28 C13.60652624 31.15204981 11.97514921 33.26171773 9.5234375 35.671875 C8.853125 36.33574219 8.1828125 36.99960937 7.4921875 37.68359375 C6.79351562 38.36550781 6.09484375 39.04742187 5.375 39.75 C4.66859375 40.44738281 3.9621875 41.14476562 3.234375 41.86328125 C1.49401297 43.58012488 -0.25084981 45.29211832 -2 47 C-0.60652624 50.15204981 1.02485079 52.26171773 3.4765625 54.671875 C4.146875 55.33574219 4.8171875 55.99960937 5.5078125 56.68359375 C6.20648438 57.36550781 6.90515625 58.04742187 7.625 58.75 C8.33140625 59.44738281 9.0378125 60.14476562 9.765625 60.86328125 C11.50598703 62.58012488 13.25084981 64.29211832 15 66 C13.48623919 69.56764285 11.39486871 71.83706287 8.6484375 74.546875 C7.79765625 75.39121094 6.946875 76.23554688 6.0703125 77.10546875 C5.18085938 77.97816406 4.29140625 78.85085938 3.375 79.75 C2.4778125 80.63816406 1.580625 81.52632813 0.65625 82.44140625 C-1.55807004 84.63216969 -3.77692435 86.81812763 -6 89 C-13.77138368 82.48366179 -20.91433078 75.38067238 -28.109375 68.24072266 C-29.71216065 66.65463269 -31.32031053 65.07394636 -32.93359375 63.49853516 C-35.26990809 61.21665277 -37.58964674 58.91905723 -39.90625 56.6171875 C-40.6331604 55.91294647 -41.3600708 55.20870544 -42.10900879 54.48312378 C-42.76719604 53.82208649 -43.4253833 53.16104919 -44.10351562 52.47998047 C-44.68862915 51.9029538 -45.27374268 51.32592712 -45.87658691 50.73141479 C-47 49 -47 49 -46.9453125 47.06906128 C-45.67168148 44.28138987 -43.94459396 42.57817318 -41.77148438 40.41503906 C-40.87385376 39.51440735 -39.97622314 38.61377563 -39.0513916 37.68585205 C-38.06574386 36.71220732 -37.07985764 35.73880395 -36.09375 34.765625 C-35.08808148 33.76301452 -34.08300303 32.75981185 -33.07849121 31.75604248 C-30.97465926 29.65680895 -28.86601658 27.56257825 -26.75341797 25.47216797 C-24.03941217 22.786517 -21.33422699 20.09219622 -18.63213348 17.39456558 C-16.55836369 15.32494196 -14.4817776 13.25816541 -12.40412903 11.19243622 C-11.40526883 10.19928946 -10.40688629 9.20566205 -9.40898132 8.21155548 C-8.01811384 6.82752556 -6.62341341 5.44735069 -5.22851562 4.06738281 C-4.0372406 2.88634979 -4.0372406 2.88634979 -2.82189941 1.68145752 C-1 0 -1 0 0 0 Z " fill="#49686F" transform="translate(181,309)"/>
<path d="M0 0 C18.81 0 37.62 0 57 0 C57 18.81 57 37.62 57 57 C47.1 57 37.2 57 27 57 C27 48.09 27 39.18 27 30 C18.09 30 9.18 30 0 30 C0 20.1 0 10.2 0 0 Z " fill="#384949" transform="translate(331,241)"/>
<path d="M0 0 C18.81 0 37.62 0 57 0 C57 9.9 57 19.8 57 30 C48.09 30 39.18 30 30 30 C30 38.91 30 47.82 30 57 C20.1 57 10.2 57 0 57 C0 38.19 0 19.38 0 0 Z " fill="#4A696F" transform="translate(124,241)"/>
</svg>
